<svg width="36" height="36" viewBox="0 0 36 36" fill="none" xmlns="http://www.w3.org/2000/svg">
<path d="M17.8235 23.4207C17.7322 23.3842 17.6409 23.3477 17.5496 23.2929C17.4948 23.2564 17.3853 23.1468 17.4218 23.0738C17.4583 23.019 17.5131 22.946 17.6409 22.9642C18.5356 23.1103 20.1425 23.092 21.0007 21.12C21.0007 21.1017 21.019 21.1017 21.019 21.0835C21.4207 20.1157 21.4207 19.0932 21.092 18.1619C20.7816 17.2855 20.2155 16.482 19.4304 15.9342C19.3756 15.8977 19.3208 15.8795 19.2843 15.8429C19.12 15.7151 18.9374 15.6056 18.7548 15.5325C17.8783 15.1491 16.9471 15.003 16.0158 15.076C15.9793 15.076 15.961 15.076 15.9245 15.076C15.3767 15.1308 14.8107 15.2769 14.2994 15.4777C13.7333 15.7334 13.496 15.7151 13.3499 15.6238C13.3316 15.6056 13.3316 15.5873 13.3316 15.569C13.3316 15.5508 13.3134 15.5325 13.3134 15.5143C13.3134 15.496 13.2951 15.4777 13.2951 15.4595C13.2951 15.4412 13.2951 15.423 13.2769 15.4047C13.2769 15.3864 13.2769 15.3682 13.2769 15.3317C13.2769 15.2586 13.2769 15.1856 13.2769 15.0943C13.2769 15.0578 13.2769 15.0395 13.2769 15.003C13.2769 15.003 13.2769 15.003 13.2769 14.9847C13.2769 14.9117 13.2769 14.8387 13.2951 14.7656C13.2951 14.6926 13.3134 14.6195 13.3134 14.5465C13.3134 14.4735 13.3316 14.4004 13.3316 14.3274C13.3499 14.1813 13.3681 14.0352 13.3864 13.8892C13.4047 13.7248 13.4229 13.5787 13.4595 13.4144C13.4777 13.3414 13.4777 13.2683 13.496 13.1953C13.5142 13.0492 13.5507 12.9031 13.569 12.7753C13.569 12.7388 13.5873 12.684 13.5873 12.6475C13.5873 12.611 13.6055 12.5562 13.6055 12.5197C13.642 12.3736 13.6786 12.2275 13.7151 12.0632C13.7516 11.9171 13.7881 11.771 13.8246 11.625C13.8429 11.5519 13.8612 11.4789 13.8794 11.4058C13.8977 11.3328 13.9159 11.2598 13.9342 11.1867C13.989 10.9676 14.062 10.7485 14.1168 10.5294C14.1716 10.3103 14.2446 10.0911 14.3177 9.89028C14.3542 9.76246 14.3907 9.63465 14.4455 9.50683C14.5002 9.36075 14.555 9.21467 14.6098 9.06859C14.6463 8.94078 14.7011 8.83122 14.7376 8.7034C14.7376 8.68514 14.7559 8.68514 14.7559 8.66688C14.8107 8.53907 14.8472 8.41125 14.902 8.28343C15.0663 7.8452 15.2306 7.42522 15.395 7.06003C15.4132 7.00525 15.4315 6.95047 15.468 6.89569C15.5228 6.78613 15.5593 6.69484 15.5958 6.58528C15.6141 6.5305 15.6324 6.49398 15.6506 6.4392C15.6871 6.3479 15.7236 6.27487 15.7602 6.20183C15.7602 6.18357 15.7784 6.18356 15.7784 6.16531C15.8332 6.03749 15.888 5.92793 15.9428 5.81837C16.0523 5.56274 16.1619 5.36188 16.2349 5.17928C16.2714 5.08798 16.308 5.0332 16.3445 4.96016C16.3627 4.9419 16.3627 4.92365 16.381 4.90539C16.3993 4.88713 16.3993 4.86887 16.3993 4.85061C16.3993 4.83235 16.4175 4.81409 16.4175 4.81409C16.4358 4.79583 16.4358 4.75931 16.454 4.75931C16.454 4.74105 16.454 4.74105 16.4723 4.74105C16.4723 4.72279 16.4723 4.72279 16.4723 4.72279C16.6914 4.63149 16.947 4.59497 17.1844 4.59497C17.2392 4.59497 17.294 4.59497 17.3488 4.61323C17.4218 4.63149 17.5131 4.64975 17.5861 4.66801C17.6409 4.68627 17.6957 4.70453 17.7505 4.72279C21.9137 6.32964 26.2412 14.4187 28.9071 20.2618C30.4592 23.6946 31.4452 26.3423 31.5 26.4883C31.5 26.4883 31.5 26.4701 31.4818 26.4701C31.4818 26.4518 31.4635 26.4336 31.4452 26.4153C31.427 26.397 31.427 26.3788 31.4087 26.3605C31.3905 26.3423 31.3905 26.324 31.3722 26.3057C31.3539 26.2875 31.3539 26.2692 31.3357 26.251C31.3174 26.2327 31.2992 26.2144 31.2992 26.1779C31.2809 26.1597 31.2809 26.1414 31.2627 26.1414C31.2444 26.1049 31.2079 26.0684 31.1896 26.0319C31.1713 25.9953 31.1348 25.9588 31.1166 25.9223C31.1166 25.9223 31.1166 25.9223 31.1166 25.904C31.0983 25.8675 31.08 25.8493 31.0618 25.8127L31.0435 25.7945C31.0253 25.758 31.007 25.7397 30.9888 25.7032C30.934 25.6301 30.8975 25.5571 30.8427 25.4841C30.7879 25.411 30.7331 25.338 30.6783 25.2467C30.6236 25.1554 30.5505 25.0641 30.4775 24.9728C30.441 24.9363 30.4227 24.8815 30.3862 24.845C30.3497 24.7902 30.3131 24.7537 30.2766 24.6989C30.2401 24.6441 30.1853 24.5711 30.1305 24.5163C30.1123 24.4798 30.0758 24.4433 30.0575 24.4067C29.9479 24.2607 29.8201 24.0963 29.7106 23.9502C29.6923 23.9137 29.6558 23.8772 29.6193 23.8407C29.6193 23.8407 29.6193 23.8407 29.6193 23.8224C29.5645 23.7676 29.528 23.6946 29.4732 23.6398C29.4184 23.5668 29.3636 23.512 29.3271 23.439C29.2358 23.3294 29.1628 23.2381 29.0715 23.1286C29.035 23.092 28.9984 23.0373 28.9619 23.0007L28.9437 22.9825C28.9437 22.9825 28.9437 22.9642 28.9254 22.9642C28.7976 22.8181 28.6698 22.6538 28.5237 22.4895C28.4689 22.4347 28.4141 22.3617 28.3594 22.3069C28.3228 22.2521 28.2681 22.2156 28.2315 22.1608C28.1402 22.0512 28.0489 21.9599 27.9394 21.8504C27.9029 21.7956 27.8481 21.7591 27.8116 21.7043C27.7568 21.6495 27.702 21.5765 27.6472 21.5217C27.629 21.5034 27.629 21.5034 27.6107 21.4852C27.5377 21.4121 27.4829 21.3391 27.4099 21.2661C27.3368 21.1748 27.2455 21.1017 27.1725 21.0104L27.1542 20.9922C27.0994 20.9374 27.0629 20.9009 27.0081 20.8461C26.9716 20.8096 26.9534 20.7913 26.9168 20.7548C26.8803 20.7183 26.8438 20.6818 26.8073 20.6452C26.7708 20.6087 26.716 20.5722 26.6795 20.5174C26.6247 20.4626 26.5516 20.4079 26.4969 20.3348C26.4603 20.2983 26.4238 20.2618 26.3873 20.2435C26.3143 20.1705 26.2412 20.1157 26.1682 20.0427C26.1317 20.0062 26.1134 19.9879 26.0769 19.9514C26.0586 19.9331 26.0404 19.9149 26.0221 19.9149C25.9856 19.8966 25.9673 19.8601 25.9308 19.8418C25.9126 19.8236 25.9126 19.8236 25.8943 19.8053C25.8578 19.787 25.8395 19.7505 25.803 19.7323C25.7665 19.714 25.7482 19.6775 25.7117 19.6592C25.6934 19.641 25.6569 19.6227 25.6387 19.6044C25.6021 19.5862 25.5839 19.5497 25.5474 19.5314C25.5291 19.5131 25.5108 19.4949 25.4926 19.4949C25.4743 19.4766 25.4743 19.4766 25.4561 19.4584C25.4013 19.4036 25.3282 19.3488 25.2552 19.3123C25.2004 19.2575 25.1274 19.221 25.0726 19.1662C25.0361 19.1297 24.9813 19.0932 24.9448 19.0566C24.817 18.9471 24.6709 18.8558 24.5431 18.7645L24.5248 18.7462C24.5066 18.728 24.47 18.7097 24.4518 18.6915C24.4335 18.6732 24.397 18.6549 24.3787 18.6367L24.3605 18.6184C24.3422 18.6002 24.324 18.5819 24.2874 18.5636C24.2509 18.5454 24.2327 18.5271 24.1961 18.5089C24.1961 18.5089 24.1962 18.5089 24.1779 18.5089C23.977 18.381 23.7762 18.2715 23.6118 18.2715C23.4475 18.3445 23.3197 18.5636 23.2649 19.1662C23.1919 19.641 23.064 20.134 22.8814 20.5722C22.8632 20.5905 22.8632 20.627 22.8449 20.6452C22.4432 21.5765 21.8772 22.4712 21.0007 22.9825C20.3251 23.439 18.9921 23.9868 17.8235 23.4207Z" fill="url(#paint0_linear_3353_30016)"/>
<path d="M20.6721 18.0889C20.6903 18.1802 20.6903 18.2897 20.6903 18.381C20.6903 18.4541 20.6538 18.6002 20.5625 18.6002C20.5077 18.6002 20.3982 18.6002 20.3616 18.4723C20.033 17.6324 19.2113 16.2447 17.0749 16.482C17.0566 16.482 17.0566 16.482 17.0384 16.482C15.9976 16.6098 15.1211 17.1394 14.4638 17.8698C13.8429 18.5636 13.4595 19.4766 13.3682 20.4079C13.3682 20.4627 13.3682 20.5174 13.3682 20.5905C13.3499 20.8096 13.3499 21.0104 13.3682 21.2113C13.4777 22.1608 13.8064 23.0555 14.3359 23.8042C14.3542 23.8224 14.3725 23.8407 14.3907 23.8772C14.7194 24.3337 15.1211 24.7354 15.5593 25.0823C16.0523 25.4475 16.1802 25.6667 16.1619 25.831C16.1619 25.8493 16.1436 25.8675 16.1254 25.8675C16.1071 25.8858 16.1071 25.904 16.0889 25.904C16.0706 25.9223 16.0524 25.9406 16.0524 25.9406C16.0341 25.9588 16.0158 25.9588 15.9976 25.9771C15.9793 25.9953 15.961 25.9953 15.9428 26.0136C15.888 26.0501 15.815 26.0866 15.7419 26.1232C15.7237 26.1414 15.6872 26.1414 15.6689 26.1597C15.6689 26.1597 15.6689 26.1597 15.6506 26.1597C15.5776 26.1962 15.5228 26.2327 15.4498 26.251C15.3767 26.2875 15.322 26.324 15.2489 26.3423C15.1759 26.3788 15.1211 26.397 15.0481 26.4336C14.9202 26.4883 14.7924 26.5431 14.6464 26.5979C14.5003 26.6527 14.3542 26.7257 14.2081 26.7805C14.1351 26.817 14.062 26.8353 13.989 26.8535C13.8612 26.9083 13.7151 26.9448 13.5873 26.9996C13.5508 27.0179 13.5143 27.0361 13.4595 27.0361C13.423 27.0544 13.3864 27.0544 13.3317 27.0727C13.1856 27.1274 13.0395 27.164 12.8934 27.2187C12.7473 27.2553 12.6013 27.31 12.4552 27.3466C12.3821 27.3648 12.3091 27.3831 12.2361 27.4013C12.163 27.4196 12.09 27.4378 12.017 27.4561C11.7978 27.5109 11.5787 27.5657 11.3596 27.6204C11.1405 27.6752 10.9214 27.73 10.7023 27.7665C10.5744 27.803 10.4466 27.8213 10.3188 27.8396C10.1545 27.8761 10.0084 27.8943 9.86231 27.9309C9.73449 27.9491 9.60667 27.9674 9.49712 28.0039C9.47886 28.0039 9.46059 28.0039 9.46059 28.0039C9.31452 28.0222 9.1867 28.0587 9.05888 28.0769C8.58413 28.15 8.1459 28.223 7.74419 28.2595C7.68941 28.2595 7.63463 28.2778 7.57985 28.2778C7.47029 28.2961 7.36073 28.2961 7.25118 28.3143C7.1964 28.3143 7.14161 28.3326 7.08683 28.3326C6.99554 28.3508 6.90424 28.3508 6.83121 28.3691C6.81295 28.3691 6.79468 28.3691 6.79468 28.3691C6.66687 28.3874 6.53905 28.3874 6.42949 28.4056C6.15559 28.4239 5.91822 28.4421 5.73562 28.4604C5.64433 28.4604 5.57128 28.4786 5.49824 28.4786C5.47998 28.4786 5.46173 28.4786 5.42521 28.4786C5.40695 28.4786 5.38869 28.4786 5.37043 28.4786C5.35217 28.4786 5.3339 28.4786 5.31564 28.4786C5.27912 28.4786 5.26087 28.4786 5.24261 28.4786C5.22435 28.4786 5.22434 28.4786 5.22434 28.4786C5.20608 28.4786 5.20609 28.4786 5.20609 28.4786C5.02349 28.3326 4.85915 28.1317 4.7496 27.9126C4.71308 27.8578 4.69481 27.8213 4.67655 27.7665C4.64003 27.6935 4.62178 27.6022 4.60352 27.5292C4.58526 27.4744 4.58526 27.4196 4.567 27.3648C3.87313 22.9642 8.71195 15.1673 12.4552 9.94506C14.6464 6.87744 16.4541 4.70453 16.5454 4.59497C16.5454 4.59497 16.5454 4.59497 16.5454 4.61323C16.5454 4.63149 16.5271 4.64975 16.5088 4.66801C16.5088 4.68627 16.4906 4.70453 16.4723 4.72279C16.4541 4.74105 16.4541 4.75931 16.4358 4.77757C16.4358 4.79583 16.4175 4.81409 16.4175 4.83235C16.3993 4.85061 16.3993 4.86887 16.381 4.90539C16.381 4.92365 16.3628 4.9419 16.3628 4.96016C16.3445 4.99668 16.3262 5.03321 16.308 5.08798C16.2897 5.1245 16.2715 5.16103 16.2532 5.2158C16.2532 5.2158 16.2532 5.2158 16.2532 5.23406C16.2349 5.27058 16.2167 5.3071 16.1984 5.34362C16.1984 5.34362 16.1984 5.36188 16.1802 5.36188C16.1619 5.3984 16.1436 5.43492 16.1254 5.45318C16.0889 5.52622 16.0523 5.61751 16.0158 5.69055C15.9793 5.76359 15.9428 5.85489 15.9063 5.94619C15.8697 6.03749 15.815 6.14705 15.7785 6.2566C15.7602 6.31138 15.7419 6.34791 15.7054 6.40268C15.6872 6.45746 15.6689 6.51224 15.6324 6.56702C15.5958 6.64006 15.5776 6.71309 15.5411 6.78613C15.5228 6.82265 15.5046 6.85917 15.4863 6.91395C15.4133 7.07829 15.3402 7.26089 15.2672 7.44348C15.2489 7.48 15.2307 7.53478 15.2124 7.5713C15.2124 7.5713 15.2124 7.57131 15.2124 7.58956C15.1759 7.6626 15.1576 7.73564 15.1211 7.80868C15.0846 7.88172 15.0663 7.95476 15.0298 8.04606C14.975 8.17387 14.9385 8.30169 14.8837 8.42951C14.8655 8.48429 14.8472 8.53907 14.8289 8.59385V8.6121V8.63036C14.7559 8.81296 14.6829 9.01382 14.6281 9.21468C14.6098 9.28771 14.5733 9.36075 14.5551 9.43379C14.5368 9.48857 14.5185 9.56161 14.5003 9.61639C14.4638 9.7442 14.409 9.89028 14.3725 10.0181C14.3542 10.0729 14.3359 10.1459 14.3177 10.2007C14.2994 10.2737 14.2629 10.365 14.2446 10.4381C14.2446 10.4563 14.2446 10.4563 14.2264 10.4746C14.1899 10.5659 14.1716 10.6572 14.1533 10.7485C14.1168 10.858 14.0803 10.9676 14.062 11.0954V11.1137C14.0438 11.1867 14.0255 11.2415 14.0073 11.3145C13.989 11.3511 13.989 11.3876 13.9707 11.4241C13.9525 11.4789 13.9342 11.5337 13.9342 11.5884C13.916 11.6432 13.8977 11.698 13.8977 11.7528C13.8794 11.8441 13.8612 11.9171 13.8429 12.0084C13.8247 12.0632 13.8247 12.0997 13.8064 12.1545C13.7881 12.2458 13.7699 12.3371 13.7516 12.4466C13.7516 12.4832 13.7334 12.5379 13.7334 12.5745C13.7334 12.5927 13.7334 12.611 13.7151 12.6292C13.7151 12.6658 13.6968 12.7023 13.6968 12.7571C13.6968 12.7753 13.6968 12.7936 13.6786 12.8118C13.6786 12.8484 13.6603 12.8849 13.6603 12.9214C13.6603 12.9579 13.6421 12.9944 13.6421 13.031C13.6421 13.0675 13.6238 13.0857 13.6238 13.1222C13.6238 13.1588 13.6055 13.1953 13.6055 13.2318C13.6055 13.2501 13.6056 13.2683 13.5873 13.3048C13.5873 13.3231 13.5873 13.3414 13.5873 13.3596C13.569 13.4327 13.569 13.524 13.5508 13.597C13.5325 13.67 13.5325 13.7431 13.5142 13.8344C13.5142 13.8892 13.496 13.9439 13.496 13.9987C13.4777 14.163 13.4595 14.3274 13.4412 14.51C13.4412 14.5282 13.4412 14.5282 13.4412 14.5465C13.4412 14.583 13.4412 14.6013 13.4412 14.6378C13.4412 14.6743 13.4412 14.6926 13.4412 14.7291C13.4412 14.7474 13.4412 14.7474 13.4412 14.7656C13.4412 14.8021 13.4412 14.8204 13.4412 14.8387C13.4412 14.8752 13.4412 14.9117 13.4412 14.9482C13.4412 14.9482 13.4412 14.9482 13.4412 14.9665C13.4229 15.2039 13.4229 15.423 13.5142 15.569C13.6603 15.6786 13.8977 15.6786 14.4638 15.423C14.9202 15.2404 15.395 15.1126 15.8698 15.0395C15.9063 15.0395 15.9245 15.0395 15.9611 15.0213C16.9653 14.8934 18.0244 14.9482 18.9191 15.4595C19.4486 15.916 20.5808 16.8107 20.6721 18.0889Z" fill="url(#paint1_linear_3353_30016)"/>
<path d="M14.6464 18.2898C14.7194 18.235 14.8107 18.1802 14.902 18.1254C14.975 18.0889 15.1029 18.0524 15.1394 18.1254C15.1759 18.1802 15.2124 18.2715 15.1211 18.3628C14.5551 19.0567 13.7516 20.4627 15.0481 22.1973C15.0481 22.2156 15.0663 22.2156 15.0663 22.2339C15.6872 23.0738 16.5819 23.5851 17.5496 23.7677C18.4626 23.9503 19.4487 23.8407 20.3069 23.439C20.3616 23.4207 20.4164 23.3842 20.4529 23.3477C20.6538 23.2564 20.8364 23.1651 21.0007 23.0373C21.7676 22.4712 22.3702 21.7408 22.7719 20.9009C22.7902 20.8826 22.7902 20.8461 22.8084 20.8279C23.0276 20.3166 23.1919 19.7688 23.2649 19.2027C23.3197 18.6002 23.4475 18.3811 23.6119 18.308C23.6301 18.308 23.6484 18.308 23.6666 18.308C23.6849 18.308 23.7032 18.308 23.7214 18.3263C23.7397 18.3263 23.7579 18.3445 23.7762 18.3445C23.7945 18.3445 23.8127 18.3628 23.831 18.3628C23.8492 18.3628 23.8675 18.3811 23.8858 18.3811C23.9588 18.4176 24.0136 18.4541 24.0866 18.4906C24.1049 18.5089 24.1414 18.5271 24.1597 18.5454C24.1597 18.5454 24.1597 18.5454 24.1779 18.5454C24.2327 18.5819 24.3057 18.6184 24.3605 18.6732C24.4153 18.7097 24.4883 18.7645 24.5431 18.801C24.5979 18.8376 24.6709 18.8923 24.7257 18.9288C24.8353 19.0201 24.9631 19.0932 25.0726 19.1845C25.2005 19.2758 25.3283 19.3853 25.4378 19.4766C25.4926 19.5314 25.5657 19.5679 25.6204 19.6227C25.73 19.714 25.8395 19.8053 25.9491 19.8966C25.9856 19.9331 26.0221 19.9514 26.0404 19.9879C26.0769 20.0244 26.0952 20.0427 26.1317 20.0792C26.2413 20.1888 26.3508 20.2801 26.4786 20.3896C26.5882 20.4992 26.6978 20.5905 26.8073 20.7C26.8621 20.7548 26.9169 20.8096 26.9717 20.8644C27.0264 20.9192 27.0812 20.9739 27.136 21.0287C27.3003 21.193 27.4647 21.3574 27.6107 21.5217C27.7751 21.6861 27.9212 21.8504 28.0672 22.0147C28.1585 22.106 28.2498 22.2156 28.3411 22.3069C28.4507 22.4347 28.542 22.5443 28.6515 22.6721C28.7428 22.7634 28.8159 22.8729 28.8889 22.9642C28.8889 22.9825 28.9072 22.9825 28.9072 23.0008C28.9985 23.1103 29.0898 23.2199 29.1628 23.3112C29.455 23.6764 29.7289 24.0233 29.9845 24.352C30.021 24.3885 30.0575 24.4433 30.0941 24.4981C30.1671 24.5894 30.2219 24.6807 30.2949 24.7719C30.3314 24.8085 30.3497 24.8632 30.3862 24.8998C30.441 24.9728 30.4958 25.0458 30.5323 25.1189C30.5323 25.1371 30.5505 25.1371 30.5505 25.1554C30.6236 25.265 30.6966 25.3563 30.7697 25.4658C30.934 25.6849 31.0618 25.8858 31.1714 26.0501C31.2262 26.1232 31.2627 26.1962 31.2992 26.251C31.3175 26.2693 31.3175 26.2875 31.3357 26.3058C31.354 26.324 31.354 26.3423 31.3722 26.3605C31.3905 26.3788 31.3905 26.3971 31.4088 26.3971C31.427 26.4153 31.4453 26.4336 31.4453 26.4518L31.4635 26.4701L31.4818 26.4884C31.4453 26.7257 31.354 26.9631 31.2262 27.164C31.1896 27.2188 31.1714 27.2553 31.1349 27.2918C31.0801 27.3648 31.0253 27.4196 30.9705 27.4744C30.934 27.5109 30.8975 27.5474 30.8427 27.5839C27.3734 30.3959 18.207 30.0855 11.8161 29.4647C8.07287 29.0995 5.27913 28.6247 5.13306 28.6065H5.15132C5.16958 28.6065 5.18784 28.6065 5.22436 28.6065C5.24261 28.6065 5.26088 28.6065 5.27914 28.6065C5.2974 28.6065 5.33392 28.6065 5.35218 28.6065C5.37043 28.6065 5.38869 28.6065 5.40695 28.6065C5.42521 28.6065 5.46174 28.6065 5.48 28.6065C5.49825 28.6065 5.51651 28.6065 5.53477 28.6065C5.57129 28.6065 5.62607 28.6065 5.66259 28.6065C5.69911 28.6065 5.75389 28.6065 5.80867 28.5882C5.80867 28.5882 5.80867 28.5882 5.82693 28.5882C5.86345 28.5882 5.89997 28.5882 5.93649 28.5882H5.95474C5.99126 28.5882 6.02779 28.5882 6.06431 28.57C6.15561 28.57 6.22864 28.5517 6.31994 28.5517C6.41123 28.5517 6.50253 28.5335 6.59383 28.5335C6.70339 28.5152 6.81296 28.5152 6.92252 28.4969C6.97729 28.4969 7.03207 28.4787 7.08685 28.4787C7.14162 28.4787 7.19641 28.4604 7.25119 28.4604C7.32423 28.4604 7.39726 28.4421 7.48856 28.4239C7.52508 28.4239 7.57986 28.4056 7.61638 28.4056C7.79898 28.3874 7.99984 28.3508 8.20069 28.3326C8.23721 28.3326 8.29198 28.3143 8.3285 28.3143C8.3285 28.3143 8.32851 28.3143 8.34677 28.3143C8.41981 28.2961 8.49285 28.2961 8.56589 28.2778C8.63893 28.2596 8.73022 28.2596 8.80326 28.2413C8.93108 28.223 9.0589 28.2048 9.20498 28.1683C9.25976 28.15 9.31453 28.15 9.36931 28.1317H9.38757H9.40583C9.60669 28.0952 9.80754 28.0587 10.0084 28.0222C10.0814 28.0039 10.1545 27.9857 10.2458 27.9857C10.3188 27.9674 10.3736 27.9674 10.4466 27.9491C10.5927 27.9126 10.7205 27.8944 10.8666 27.8578C10.9396 27.8396 10.9944 27.8213 11.0675 27.8213C11.1405 27.8031 11.2318 27.7848 11.3048 27.7665C11.3231 27.7665 11.3231 27.7665 11.3414 27.7483C11.4327 27.73 11.524 27.7118 11.6335 27.6752C11.7431 27.6387 11.8526 27.6205 11.9804 27.5839H11.9987C12.0717 27.5657 12.1265 27.5474 12.1996 27.5292C12.2361 27.5109 12.2726 27.5109 12.3091 27.4926C12.3639 27.4744 12.4187 27.4561 12.4735 27.4561C12.5282 27.4379 12.583 27.4196 12.6378 27.4014C12.7291 27.3831 12.8021 27.3466 12.8752 27.3283C12.9299 27.31 12.9665 27.2918 13.0212 27.2918C13.1125 27.2553 13.2038 27.237 13.2951 27.2005C13.3317 27.1822 13.3682 27.1822 13.423 27.164C13.4412 27.164 13.4595 27.1457 13.4777 27.1457C13.5143 27.1274 13.5508 27.1274 13.5873 27.1092C13.6056 27.1092 13.6238 27.0909 13.6421 27.0909C13.6786 27.0727 13.7151 27.0727 13.7516 27.0544C13.7882 27.0362 13.8247 27.0361 13.8612 27.0179C13.8977 26.9996 13.916 26.9996 13.9525 26.9814C13.989 26.9631 14.0255 26.9631 14.062 26.9449C14.0803 26.9449 14.0986 26.9266 14.1168 26.9266C14.1351 26.9266 14.1533 26.9083 14.1716 26.9083C14.2446 26.8718 14.3177 26.8536 14.409 26.817C14.482 26.7805 14.5551 26.7623 14.6281 26.7257C14.6829 26.7075 14.7377 26.6892 14.7924 26.6527C14.9568 26.5797 15.1029 26.5249 15.2489 26.4518C15.2672 26.4518 15.2672 26.4336 15.2855 26.4336C15.3037 26.4153 15.3402 26.4153 15.3585 26.3971C15.3767 26.3788 15.4133 26.3788 15.4315 26.3605C15.4498 26.3605 15.4498 26.3605 15.4498 26.3423C15.468 26.324 15.5046 26.324 15.5228 26.3058C15.5593 26.2875 15.5959 26.2693 15.6141 26.251C15.6141 26.251 15.6141 26.251 15.6324 26.251C15.8515 26.1414 16.0341 26.0319 16.1254 25.8858C16.1437 25.7032 16.0158 25.5023 15.5228 25.1371C15.1394 24.8267 14.7924 24.4798 14.482 24.0963C14.4638 24.0781 14.4455 24.0598 14.4272 24.0233C13.8247 23.2199 13.3317 22.2704 13.3317 21.2478C13.3682 20.4261 13.569 19.0019 14.6464 18.2898Z" fill="url(#paint2_linear_3353_30016)"/>
<defs>
<linearGradient id="paint0_linear_3353_30016" x1="14.2672" y1="7.84347" x2="26.7792" y2="25.705" gradientUnits="userSpaceOnUse">
<stop stop-color="#B92029"/>
<stop offset="0.1008" stop-color="#BD2029"/>
<stop offset="0.2115" stop-color="#CA222B"/>
<stop offset="0.3265" stop-color="#E2252E"/>
<stop offset="0.3577" stop-color="#EE262F"/>
<stop offset="0.6331" stop-color="#F15E46"/>
<stop offset="0.8723" stop-color="#F47B5B"/>
<stop offset="1" stop-color="#F58563"/>
</linearGradient>
<linearGradient id="paint1_linear_3353_30016" x1="8.98305" y1="28.9596" x2="18.1955" y2="9.19258" gradientUnits="userSpaceOnUse">
<stop stop-color="#B92029"/>
<stop offset="0.1008" stop-color="#BD2029"/>
<stop offset="0.2115" stop-color="#CA222B"/>
<stop offset="0.3265" stop-color="#E2252E"/>
<stop offset="0.3577" stop-color="#EE262F"/>
<stop offset="0.6331" stop-color="#F15E46"/>
<stop offset="0.8723" stop-color="#F47B5B"/>
<stop offset="1" stop-color="#F58563"/>
</linearGradient>
<linearGradient id="paint2_linear_3353_30016" x1="29.9005" y1="22.9882" x2="8.17607" y2="24.8937" gradientUnits="userSpaceOnUse">
<stop stop-color="#B92029"/>
<stop offset="0.1008" stop-color="#BD2029"/>
<stop offset="0.2115" stop-color="#CA222B"/>
<stop offset="0.3265" stop-color="#E2252E"/>
<stop offset="0.3577" stop-color="#EE262F"/>
<stop offset="0.6331" stop-color="#F15E46"/>
<stop offset="0.8723" stop-color="#F47B5B"/>
<stop offset="1" stop-color="#F58563"/>
</linearGradient>
</defs>
</svg>
