<svg width="16" height="16" viewBox="0 0 16 16" fill="none" xmlns="http://www.w3.org/2000/svg">
<path fill-rule="evenodd" clip-rule="evenodd" d="M12.9231 2.46148H3.07696V13.5384C3.07696 14.2181 3.62799 14.7692 4.30773 14.7692H11.6923C12.3721 14.7692 12.9231 14.2181 12.9231 13.5384V2.46148ZM1.84619 1.23071V13.5384C1.84619 14.8979 2.94826 15.9999 4.30773 15.9999H11.6923C13.0518 15.9999 14.1539 14.8979 14.1539 13.5384V1.23071H1.84619Z" fill="white"/>
<path d="M0 1.84616C0 2.18603 0.275517 2.46155 0.615385 2.46155H15.3846C15.7245 2.46155 16 2.18603 16 1.84616C16 1.5063 15.7245 1.23078 15.3846 1.23078H0.615385C0.275518 1.23078 0 1.5063 0 1.84616Z" fill="white"/>
<path d="M6.76904 0.615385C6.76904 0.275517 7.04456 0 7.38443 0H9.23058C9.57045 0 9.84597 0.275517 9.84597 0.615385V1.84615H6.76904V0.615385Z" fill="white"/>
<path d="M4.30762 5.53848C4.30762 5.19861 4.58313 4.9231 4.923 4.9231C5.26287 4.9231 5.53839 5.19861 5.53839 5.53848V12.3077C5.53839 12.6476 5.26287 12.9231 4.923 12.9231C4.58313 12.9231 4.30762 12.6476 4.30762 12.3077V5.53848Z" fill="white"/>
<path d="M7.38477 5.53848C7.38477 5.19861 7.66028 4.9231 8.00015 4.9231C8.34002 4.9231 8.61554 5.19861 8.61554 5.53848V12.3077C8.61554 12.6476 8.34002 12.9231 8.00015 12.9231C7.66028 12.9231 7.38477 12.6476 7.38477 12.3077V5.53848Z" fill="white"/>
<path d="M10.4614 5.53848C10.4614 5.19861 10.7369 4.9231 11.0768 4.9231C11.4167 4.9231 11.6922 5.19861 11.6922 5.53848V12.3077C11.6922 12.6476 11.4167 12.9231 11.0768 12.9231C10.7369 12.9231 10.4614 12.6476 10.4614 12.3077V5.53848Z" fill="white"/>
</svg>
