<svg width="32" height="32" viewBox="0 0 32 32" fill="none" xmlns="http://www.w3.org/2000/svg">
<path fill-rule="evenodd" clip-rule="evenodd" d="M16.7505 4.26667H15.2492L14.3892 7.704L13.5265 7.97067C13.0238 8.12557 12.5368 8.32735 12.0718 8.57334L11.2732 8.99601L8.23317 7.17201L7.17184 8.23467L8.99584 11.2747L8.57317 12.072C8.32672 12.5369 8.1245 13.0239 7.96917 13.5267L7.70384 14.3893L4.2665 15.2493V16.7507L7.70384 17.6107L7.9705 18.4733C8.12428 18.9782 8.32517 19.4631 8.57317 19.928L8.99584 20.7267L7.17184 23.7667L8.2345 24.828L11.2745 23.004L12.0718 23.4267C12.5367 23.6738 13.0216 23.8751 13.5265 24.0307L14.3892 24.296L15.2492 27.7333H16.7505L17.6105 24.296L18.4732 24.0293C18.9759 23.8744 19.4629 23.6727 19.9278 23.4267L20.7265 23.004L23.7665 24.828L24.8278 23.7653L23.0038 20.7253L23.4265 19.928C23.6736 19.4631 23.8749 18.9782 24.0305 18.4733L24.2958 17.6107L27.7332 16.7507V15.2493L24.2958 14.3893L24.0292 13.5267C23.8743 13.024 23.6725 12.537 23.4265 12.072L23.0038 11.2733L24.8278 8.23334L23.7652 7.17201L20.7252 8.99601L19.9278 8.57334C19.4629 8.32689 18.9759 8.12467 18.4732 7.96934L17.6105 7.704L16.7505 4.26667ZM20.6772 7.16L23.1212 5.69334C23.376 5.54049 23.6746 5.47715 23.9696 5.51339C24.2645 5.54962 24.5389 5.68335 24.7492 5.89334L26.1065 7.25067C26.3165 7.46094 26.4502 7.73533 26.4865 8.03028C26.5227 8.32523 26.4594 8.62383 26.3065 8.87867L24.8398 11.3227C25.1332 11.8738 25.3732 12.4516 25.5598 13.056L28.3238 13.748C28.6122 13.8202 28.8681 13.9867 29.051 14.2211C29.2338 14.4554 29.3332 14.7441 29.3332 15.0413V16.9587C29.3332 17.2559 29.2338 17.5446 29.051 17.7789C28.8681 18.0133 28.6122 18.1798 28.3238 18.252L25.5598 18.944C25.3732 19.5484 25.1332 20.1262 24.8398 20.6773L26.3065 23.1213C26.4594 23.3762 26.5227 23.6748 26.4865 23.9697C26.4502 24.2647 26.3165 24.5391 26.1065 24.7493L24.7492 26.1067C24.5389 26.3167 24.2645 26.4504 23.9696 26.4866C23.6746 26.5229 23.376 26.4595 23.1212 26.3067L20.6772 24.84C20.1261 25.1333 19.5483 25.3733 18.9438 25.56L18.2518 28.324C18.1796 28.6123 18.0131 28.8683 17.7788 29.0511C17.5445 29.234 17.2557 29.3333 16.9585 29.3333H15.0412C14.7439 29.3333 14.4552 29.234 14.2209 29.0511C13.9866 28.8683 13.8201 28.6123 13.7478 28.324L13.0558 25.56C12.4568 25.3749 11.8764 25.1338 11.3225 24.84L8.8785 26.3067C8.62366 26.4595 8.32506 26.5229 8.03011 26.4866C7.73516 26.4504 7.46077 26.3167 7.2505 26.1067L5.89317 24.7493C5.68318 24.5391 5.54945 24.2647 5.51322 23.9697C5.47698 23.6748 5.54032 23.3762 5.69317 23.1213L7.15984 20.6773C6.86603 20.1234 6.62496 19.5431 6.43984 18.944L3.67584 18.252C3.38773 18.1798 3.13197 18.0135 2.94912 17.7795C2.76627 17.5454 2.66681 17.257 2.6665 16.96V15.0427C2.66651 14.7454 2.76584 14.4567 2.94871 14.2224C3.13158 13.9881 3.38751 13.8216 3.67584 13.7493L6.43984 13.0573C6.6265 12.4529 6.8665 11.8751 7.15984 11.324L5.69317 8.88C5.54032 8.62516 5.47698 8.32656 5.51322 8.03161C5.54945 7.73666 5.68318 7.46227 5.89317 7.25201L7.2505 5.89334C7.46077 5.68335 7.73516 5.54962 8.03011 5.51339C8.32506 5.47715 8.62366 5.54049 8.8785 5.69334L11.3225 7.16C11.8736 6.86667 12.4514 6.62667 13.0558 6.44L13.7478 3.67601C13.82 3.3879 13.9863 3.13214 14.2204 2.94929C14.4544 2.76644 14.7428 2.66698 15.0398 2.66667H16.9572C17.2544 2.66668 17.5431 2.76601 17.7774 2.94888C18.0118 3.13175 18.1783 3.38768 18.2505 3.67601L18.9425 6.44C19.5469 6.62667 20.1247 6.86667 20.6758 7.16H20.6772ZM15.9998 19.7333C16.99 19.7333 17.9396 19.34 18.6397 18.6399C19.3398 17.9397 19.7332 16.9901 19.7332 16C19.7332 15.0099 19.3398 14.0603 18.6397 13.3601C17.9396 12.66 16.99 12.2667 15.9998 12.2667C15.0097 12.2667 14.0601 12.66 13.36 13.3601C12.6598 14.0603 12.2665 15.0099 12.2665 16C12.2665 16.9901 12.6598 17.9397 13.36 18.6399C14.0601 19.34 15.0097 19.7333 15.9998 19.7333ZM15.9998 21.3333C14.5853 21.3333 13.2288 20.7714 12.2286 19.7712C11.2284 18.771 10.6665 17.4145 10.6665 16C10.6665 14.5855 11.2284 13.229 12.2286 12.2288C13.2288 11.2286 14.5853 10.6667 15.9998 10.6667C17.4143 10.6667 18.7709 11.2286 19.7711 12.2288C20.7713 13.229 21.3332 14.5855 21.3332 16C21.3332 17.4145 20.7713 18.771 19.7711 19.7712C18.7709 20.7714 17.4143 21.3333 15.9998 21.3333Z" fill="black"/>
</svg>
